<svg xmlns="http://www.w3.org/2000/svg" viewBox="0 0 1600 900" preserveAspectRatio="xMidYMid slice">
  <defs>
    <radialGradient id="n1" cx="30%" cy="35%" r="65%">
      <stop offset="0" stop-color="#8bd3ff" stop-opacity=".55"/>
      <stop offset="1" stop-color="#070916" stop-opacity="0"/>
    </radialGradient>
    <radialGradient id="n2" cx="70%" cy="30%" r="60%">
      <stop offset="0" stop-color="#c7a6ff" stop-opacity=".50"/>
      <stop offset="1" stop-color="#070916" stop-opacity="0"/>
    </radialGradient>
    <filter id="blur" x="-20%" y="-20%" width="140%" height="140%">
      <feGaussianBlur stdDeviation="18"/>
    </filter>
  </defs>
  <rect width="1600" height="900" fill="#070916"/>
  <g filter="url(#blur)">
    <circle cx="520" cy="360" r="380" fill="url(#n1)"/>
    <circle cx="1060" cy="320" r="420" fill="url(#n2)"/>
  </g>
  <g opacity=".9">
    <circle cx="150" cy="140" r="2" fill="#fff"/>
    <circle cx="420" cy="110" r="1.6" fill="#fff" opacity=".8"/>
    <circle cx="820" cy="160" r="2.2" fill="#fff" opacity=".9"/>
    <circle cx="1240" cy="120" r="1.8" fill="#fff" opacity=".85"/>
    <circle cx="1460" cy="210" r="2.4" fill="#fff" opacity=".95"/>
    <circle cx="1320" cy="680" r="1.7" fill="#fff" opacity=".75"/>
    <circle cx="310" cy="720" r="2.1" fill="#fff" opacity=".9"/>
    <circle cx="980" cy="760" r="1.6" fill="#fff" opacity=".8"/>
  </g>
  <path d="M0 710 C 340 640, 620 820, 980 730 C 1240 665, 1380 710, 1600 670 L1600 900 L0 900 Z"
        fill="#070916" opacity=".75"/>
</svg>