<svg xmlns="http://www.w3.org/2000/svg" width="500" height="500">
  <rect width="500" height="500" fill="transparent"/>
  <circle cx="120" cy="155" r="0.6" fill="white" opacity="0.8"/><circle cx="245" cy="79" r="0.6" fill="white" opacity="0.35"/><circle cx="10" cy="205" r="1.4" fill="white" opacity="0.65"/><circle cx="409" cy="391" r="0.6" fill="white" opacity="0.5"/><circle cx="266" cy="274" r="1" fill="white" opacity="0.65"/><circle cx="399" cy="88" r="0.6" fill="white" opacity="0.65"/><circle cx="109" cy="482" r="0.6" fill="white" opacity="0.65"/><circle cx="409" cy="139" r="0.8" fill="white" opacity="0.5"/><circle cx="158" cy="148" r="1" fill="white" opacity="0.35"/><circle cx="432" cy="310" r="1" fill="white" opacity="0.8"/><circle cx="259" cy="127" r="0.8" fill="white" opacity="0.5"/><circle cx="242" cy="143" r="0.6" fill="white" opacity="0.65"/><circle cx="3" cy="465" r="1" fill="white" opacity="0.65"/><circle cx="434" cy="391" r="1.4" fill="white" opacity="0.5"/><circle cx="211" cy="216" r="1.4" fill="white" opacity="0.65"/><circle cx="220" cy="231" r="0.8" fill="white" opacity="0.5"/><circle cx="156" cy="132" r="0.6" fill="white" opacity="0.35"/><circle cx="23" cy="236" r="1" fill="white" opacity="0.8"/><circle cx="358" cy="175" r="0.8" fill="white" opacity="0.5"/><circle cx="34" cy="211" r="0.8" fill="white" opacity="0.8"/><circle cx="141" cy="94" r="1" fill="white" opacity="0.8"/><circle cx="382" cy="301" r="1" fill="white" opacity="0.5"/><circle cx="463" cy="165" r="0.6" fill="white" opacity="0.35"/><circle cx="362" cy="117" r="1" fill="white" opacity="0.5"/><circle cx="62" cy="169" r="0.8" fill="white" opacity="0.65"/><circle cx="235" cy="13" r="0.6" fill="white" opacity="0.65"/><circle cx="357" cy="42" r="1" fill="white" opacity="0.65"/><circle cx="9" cy="165" r="1" fill="white" opacity="0.65"/><circle cx="494" cy="78" r="1.2" fill="white" opacity="0.35"/><circle cx="150" cy="316" r="0.8" fill="white" opacity="0.8"/><circle cx="149" cy="69" r="1" fill="white" opacity="0.8"/><circle cx="306" cy="492" r="0.8" fill="white" opacity="0.65"/><circle cx="293" cy="4" r="1" fill="white" opacity="0.35"/><circle cx="232" cy="86" r="1" fill="white" opacity="0.65"/><circle cx="148" cy="292" r="0.6" fill="white" opacity="0.8"/><circle cx="106" cy="217" r="0.8" fill="white" opacity="0.35"/><circle cx="30" cy="31" r="0.6" fill="white" opacity="0.5"/><circle cx="304" cy="346" r="0.8" fill="white" opacity="0.35"/><circle cx="279" cy="251" r="1.4" fill="white" opacity="0.5"/><circle cx="164" cy="18" r="0.6" fill="white" opacity="0.65"/><circle cx="396" cy="209" r="0.8" fill="white" opacity="0.8"/><circle cx="103" cy="123" r="1.2" fill="white" opacity="0.8"/><circle cx="251" cy="18" r="0.8" fill="white" opacity="0.8"/><circle cx="227" cy="127" r="1.2" fill="white" opacity="0.5"/><circle cx="255" cy="96" r="0.6" fill="white" opacity="0.35"/><circle cx="130" cy="129" r="0.8" fill="white" opacity="0.5"/><circle cx="395" cy="118" r="1.2" fill="white" opacity="0.65"/><circle cx="72" cy="166" r="0.6" fill="white" opacity="0.65"/><circle cx="289" cy="59" r="1.4" fill="white" opacity="0.8"/><circle cx="492" cy="461" r="0.6" fill="white" opacity="0.8"/><circle cx="198" cy="47" r="1.2" fill="white" opacity="0.5"/><circle cx="476" cy="447" r="1.4" fill="white" opacity="0.5"/><circle cx="172" cy="151" r="1.2" fill="white" opacity="0.65"/><circle cx="417" cy="215" r="1.4" fill="white" opacity="0.5"/><circle cx="335" cy="410" r="1" fill="white" opacity="0.65"/><circle cx="472" cy="200" r="1.2" fill="white" opacity="0.35"/><circle cx="439" cy="497" r="1" fill="white" opacity="0.5"/><circle cx="22" cy="202" r="1.4" fill="white" opacity="0.5"/><circle cx="392" cy="495" r="1" fill="white" opacity="0.35"/><circle cx="445" cy="85" r="1.2" fill="white" opacity="0.8"/><circle cx="382" cy="206" r="1.2" fill="white" opacity="0.5"/><circle cx="408" cy="1" r="0.8" fill="white" opacity="0.5"/><circle cx="6" cy="312" r="1" fill="white" opacity="0.35"/><circle cx="202" cy="414" r="1.2" fill="white" opacity="0.5"/><circle cx="281" cy="27" r="0.8" fill="white" opacity="0.5"/><circle cx="343" cy="311" r="1" fill="white" opacity="0.8"/><circle cx="468" cy="269" r="1.2" fill="white" opacity="0.35"/><circle cx="40" cy="17" r="1.4" fill="white" opacity="0.35"/><circle cx="250" cy="287" r="1" fill="white" opacity="0.5"/><circle cx="21" cy="185" r="0.6" fill="white" opacity="0.35"/><circle cx="152" cy="428" r="1" fill="white" opacity="0.35"/><circle cx="43" cy="491" r="1.4" fill="white" opacity="0.8"/><circle cx="195" cy="105" r="1" fill="white" opacity="0.8"/><circle cx="119" cy="388" r="1.2" fill="white" opacity="0.8"/><circle cx="48" cy="39" r="0.6" fill="white" opacity="0.65"/><circle cx="262" cy="222" r="1.2" fill="white" opacity="0.8"/><circle cx="34" cy="321" r="0.8" fill="white" opacity="0.65"/><circle cx="476" cy="428" r="1.2" fill="white" opacity="0.8"/><circle cx="60" cy="408" r="1.4" fill="white" opacity="0.5"/><circle cx="190" cy="447" r="0.8" fill="white" opacity="0.5"/><circle cx="361" cy="76" r="1" fill="white" opacity="0.8"/><circle cx="440" cy="173" r="1" fill="white" opacity="0.35"/><circle cx="363" cy="86" r="0.6" fill="white" opacity="0.65"/><circle cx="61" cy="279" r="0.6" fill="white" opacity="0.8"/><circle cx="402" cy="366" r="1.4" fill="white" opacity="0.8"/><circle cx="269" cy="38" r="1.4" fill="white" opacity="0.5"/><circle cx="210" cy="433" r="1" fill="white" opacity="0.65"/><circle cx="117" cy="392" r="0.8" fill="white" opacity="0.35"/><circle cx="346" cy="27" r="1.4" fill="white" opacity="0.65"/><circle cx="278" cy="467" r="1.2" fill="white" opacity="0.65"/>
</svg>